<mxfile host="65bd71144e">
    <diagram id="tidNuWiKpnbYSc2BVBa2" name="Page-1">
        <mxGraphModel dx="1994" dy="1587" grid="1" gridSize="10" guides="1" tooltips="1" connect="1" arrows="1" fold="1" page="0" pageScale="1" pageWidth="850" pageHeight="1100" math="0" shadow="0">
            <root>
                <mxCell id="0"/>
                <mxCell id="1" parent="0"/>
                <mxCell id="253" style="edgeStyle=orthogonalEdgeStyle;rounded=0;html=1;entryX=0.5;entryY=1;entryDx=0;entryDy=0;" parent="1" source="3" target="2" edge="1">
                    <mxGeometry relative="1" as="geometry">
                        <Array as="points">
                            <mxPoint x="-30" y="360"/>
                            <mxPoint x="-30" y="360"/>
                        </Array>
                    </mxGeometry>
                </mxCell>
                <mxCell id="3" value="" style="shape=trapezoid;perimeter=trapezoidPerimeter;whiteSpace=wrap;html=1;fixedSize=1;direction=south;" parent="1" vertex="1">
                    <mxGeometry x="-100" y="265" width="60" height="160" as="geometry"/>
                </mxCell>
                <mxCell id="5" value="" style="group" parent="1" vertex="1" connectable="0">
                    <mxGeometry x="40" y="300" width="40" height="120" as="geometry"/>
                </mxCell>
                <mxCell id="2" value="PC" style="rounded=0;whiteSpace=wrap;html=1;direction=south;" parent="5" vertex="1">
                    <mxGeometry width="40" height="120" as="geometry"/>
                </mxCell>
                <mxCell id="4" value="" style="triangle;whiteSpace=wrap;html=1;direction=south;" parent="5" vertex="1">
                    <mxGeometry width="40" height="20" as="geometry"/>
                </mxCell>
                <mxCell id="250" style="edgeStyle=orthogonalEdgeStyle;rounded=0;html=1;" parent="1" source="6" edge="1">
                    <mxGeometry relative="1" as="geometry">
                        <Array as="points">
                            <mxPoint x="-180" y="650"/>
                            <mxPoint x="-180" y="350"/>
                            <mxPoint x="-100" y="350"/>
                        </Array>
                        <mxPoint x="-100" y="350" as="targetPoint"/>
                    </mxGeometry>
                </mxCell>
                <mxCell id="6" value="+4" style="rounded=0;whiteSpace=wrap;html=1;" parent="1" vertex="1">
                    <mxGeometry x="-45" y="620" width="80" height="60" as="geometry"/>
                </mxCell>
                <mxCell id="10" value="I$" style="rounded=0;whiteSpace=wrap;html=1;fillColor=#d5e8d4;strokeColor=#82b366;" parent="1" vertex="1">
                    <mxGeometry x="190" y="295" width="120" height="140" as="geometry"/>
                </mxCell>
                <mxCell id="127" style="edgeStyle=orthogonalEdgeStyle;rounded=0;html=1;exitX=1;exitY=0.5;exitDx=0;exitDy=0;entryX=0.25;entryY=1;entryDx=0;entryDy=0;fontSize=12;" parent="1" source="36" target="47" edge="1">
                    <mxGeometry relative="1" as="geometry"/>
                </mxCell>
                <mxCell id="212" style="edgeStyle=orthogonalEdgeStyle;rounded=0;html=1;exitX=0.5;exitY=0;exitDx=0;exitDy=0;fontSize=12;endArrow=none;endFill=0;" parent="1" source="36" edge="1">
                    <mxGeometry relative="1" as="geometry">
                        <mxPoint x="580" y="290" as="targetPoint"/>
                    </mxGeometry>
                </mxCell>
                <mxCell id="36" value="Imm Gen" style="rounded=0;whiteSpace=wrap;html=1;" parent="1" vertex="1">
                    <mxGeometry x="520" y="320" width="120" height="80" as="geometry"/>
                </mxCell>
                <mxCell id="286" style="edgeStyle=elbowEdgeStyle;elbow=vertical;html=1;exitX=1;exitY=0.75;exitDx=0;exitDy=0;" edge="1" parent="1" source="37" target="52">
                    <mxGeometry relative="1" as="geometry"/>
                </mxCell>
                <mxCell id="37" value="RegFile" style="rounded=0;whiteSpace=wrap;html=1;fillColor=#d5e8d4;strokeColor=#82b366;" parent="1" vertex="1">
                    <mxGeometry x="520" y="480" width="120" height="160" as="geometry"/>
                </mxCell>
                <mxCell id="117" style="edgeStyle=orthogonalEdgeStyle;rounded=0;html=1;exitX=0;exitY=0.5;exitDx=0;exitDy=0;fontSize=12;" parent="1" source="38" edge="1">
                    <mxGeometry relative="1" as="geometry">
                        <mxPoint x="700" y="450" as="targetPoint"/>
                    </mxGeometry>
                </mxCell>
                <mxCell id="128" style="edgeStyle=orthogonalEdgeStyle;rounded=0;html=1;entryX=0.75;entryY=1;entryDx=0;entryDy=0;fontSize=12;" parent="1" source="38" target="47" edge="1">
                    <mxGeometry relative="1" as="geometry"/>
                </mxCell>
                <mxCell id="131" style="edgeStyle=orthogonalEdgeStyle;rounded=0;html=1;entryX=0.5;entryY=1;entryDx=0;entryDy=0;fontSize=12;startArrow=none;" parent="1" source="143" target="180" edge="1">
                    <mxGeometry relative="1" as="geometry">
                        <Array as="points">
                            <mxPoint x="760" y="504"/>
                            <mxPoint x="760" y="740"/>
                        </Array>
                        <mxPoint x="1120" y="740" as="targetPoint"/>
                    </mxGeometry>
                </mxCell>
                <mxCell id="141" style="edgeStyle=orthogonalEdgeStyle;rounded=0;html=1;entryX=0;entryY=0.25;entryDx=0;entryDy=0;fontSize=12;startArrow=none;" parent="1" source="143" target="39" edge="1">
                    <mxGeometry relative="1" as="geometry">
                        <Array as="points">
                            <mxPoint x="740" y="505"/>
                            <mxPoint x="740" y="180"/>
                        </Array>
                    </mxGeometry>
                </mxCell>
                <mxCell id="38" value="" style="shape=trapezoid;perimeter=trapezoidPerimeter;whiteSpace=wrap;html=1;fixedSize=1;direction=south;" parent="1" vertex="1">
                    <mxGeometry x="680" y="464.29" width="40" height="80" as="geometry"/>
                </mxCell>
                <mxCell id="214" style="edgeStyle=orthogonalEdgeStyle;rounded=0;html=1;exitX=1;exitY=0.5;exitDx=0;exitDy=0;fontSize=12;endArrow=none;endFill=0;" parent="1" source="39" edge="1">
                    <mxGeometry relative="1" as="geometry">
                        <mxPoint x="1080" y="300" as="targetPoint"/>
                    </mxGeometry>
                </mxCell>
                <mxCell id="233" style="edgeStyle=none;html=1;endArrow=none;endFill=0;" parent="1" source="39" edge="1">
                    <mxGeometry relative="1" as="geometry">
                        <mxPoint x="1000" y="360" as="targetPoint"/>
                    </mxGeometry>
                </mxCell>
                <mxCell id="39" value="BrCond" style="rounded=0;whiteSpace=wrap;html=1;fillColor=#fff2cc;strokeColor=#d6b656;" parent="1" vertex="1">
                    <mxGeometry x="940" y="260" width="120" height="80" as="geometry"/>
                </mxCell>
                <mxCell id="121" style="edgeStyle=orthogonalEdgeStyle;rounded=0;html=1;exitX=1;exitY=0.5;exitDx=0;exitDy=0;fontSize=12;endArrow=none;endFill=0;" parent="1" source="46" edge="1">
                    <mxGeometry relative="1" as="geometry">
                        <mxPoint x="830" y="720" as="targetPoint"/>
                        <Array as="points">
                            <mxPoint x="830" y="720"/>
                            <mxPoint x="830" y="720"/>
                        </Array>
                    </mxGeometry>
                </mxCell>
                <mxCell id="208" value="A_sel" style="edgeLabel;html=1;align=center;verticalAlign=middle;resizable=0;points=[];fontSize=12;" parent="121" vertex="1" connectable="0">
                    <mxGeometry x="0.2" y="1" relative="1" as="geometry">
                        <mxPoint as="offset"/>
                    </mxGeometry>
                </mxCell>
                <mxCell id="130" style="edgeStyle=orthogonalEdgeStyle;rounded=0;html=1;entryX=0.75;entryY=1;entryDx=0;entryDy=0;fontSize=12;" parent="1" source="46" target="41" edge="1">
                    <mxGeometry relative="1" as="geometry">
                        <Array as="points">
                            <mxPoint x="900" y="640"/>
                            <mxPoint x="900" y="565"/>
                        </Array>
                    </mxGeometry>
                </mxCell>
                <mxCell id="46" value="" style="shape=trapezoid;perimeter=trapezoidPerimeter;whiteSpace=wrap;html=1;fixedSize=1;direction=south;" parent="1" vertex="1">
                    <mxGeometry x="800" y="580" width="60" height="120" as="geometry"/>
                </mxCell>
                <mxCell id="129" style="edgeStyle=orthogonalEdgeStyle;rounded=0;html=1;entryX=0.25;entryY=1;entryDx=0;entryDy=0;fontSize=12;" parent="1" source="47" target="41" edge="1">
                    <mxGeometry relative="1" as="geometry">
                        <Array as="points">
                            <mxPoint x="900" y="390"/>
                            <mxPoint x="900" y="475"/>
                        </Array>
                    </mxGeometry>
                </mxCell>
                <mxCell id="210" style="edgeStyle=orthogonalEdgeStyle;rounded=0;html=1;exitX=1;exitY=0.5;exitDx=0;exitDy=0;fontSize=12;endArrow=none;endFill=0;" parent="1" source="47" edge="1">
                    <mxGeometry relative="1" as="geometry">
                        <mxPoint x="830" y="470" as="targetPoint"/>
                    </mxGeometry>
                </mxCell>
                <mxCell id="47" value="" style="shape=trapezoid;perimeter=trapezoidPerimeter;whiteSpace=wrap;html=1;fixedSize=1;direction=south;" parent="1" vertex="1">
                    <mxGeometry x="800" y="330" width="60" height="120" as="geometry"/>
                </mxCell>
                <mxCell id="51" value="" style="group" parent="1" vertex="1" connectable="0">
                    <mxGeometry x="960" y="430" width="120" height="180" as="geometry"/>
                </mxCell>
                <mxCell id="41" value="ALU" style="shape=trapezoid;perimeter=trapezoidPerimeter;whiteSpace=wrap;html=1;fixedSize=1;direction=south;container=0;fillColor=#fff2cc;strokeColor=#d6b656;" parent="51" vertex="1">
                    <mxGeometry x="0.34401096846568835" width="119.65598903153432" height="180" as="geometry"/>
                </mxCell>
                <mxCell id="42" value="" style="triangle;whiteSpace=wrap;html=1;container=0;" parent="51" vertex="1">
                    <mxGeometry x="0.34401096846568835" y="64.28571428571429" width="29.91399725788358" height="51.42857142857143" as="geometry"/>
                </mxCell>
                <mxCell id="44" value="" style="endArrow=none;html=1;strokeColor=#FFFFFF;strokeWidth=1.5;rounded=1;startSize=3;endSize=3;" parent="51" edge="1">
                    <mxGeometry width="50" height="50" relative="1" as="geometry">
                        <mxPoint y="115.71428571428572" as="sourcePoint"/>
                        <mxPoint y="64.28571428571429" as="targetPoint"/>
                    </mxGeometry>
                </mxCell>
                <mxCell id="118" style="edgeStyle=orthogonalEdgeStyle;rounded=0;html=1;exitX=0;exitY=0.5;exitDx=0;exitDy=0;fontSize=12;" parent="1" source="52" edge="1">
                    <mxGeometry relative="1" as="geometry">
                        <mxPoint x="700" y="560" as="targetPoint"/>
                    </mxGeometry>
                </mxCell>
                <mxCell id="125" style="edgeStyle=orthogonalEdgeStyle;rounded=0;html=1;entryX=0.25;entryY=1;entryDx=0;entryDy=0;fontSize=12;" parent="1" source="52" target="46" edge="1">
                    <mxGeometry relative="1" as="geometry"/>
                </mxCell>
                <mxCell id="144" style="edgeStyle=orthogonalEdgeStyle;rounded=0;html=1;exitDx=0;exitDy=0;fontSize=12;entryX=0;entryY=0.75;entryDx=0;entryDy=0;startArrow=none;" parent="1" source="147" target="39" edge="1">
                    <mxGeometry relative="1" as="geometry">
                        <mxPoint x="760" y="160" as="targetPoint"/>
                        <Array as="points">
                            <mxPoint x="780" y="610"/>
                            <mxPoint x="780" y="220"/>
                        </Array>
                    </mxGeometry>
                </mxCell>
                <mxCell id="52" value="" style="shape=trapezoid;perimeter=trapezoidPerimeter;whiteSpace=wrap;html=1;fixedSize=1;direction=south;" parent="1" vertex="1">
                    <mxGeometry x="680" y="570" width="40" height="80" as="geometry"/>
                </mxCell>
                <mxCell id="53" value="" style="group" parent="1" vertex="1" connectable="0">
                    <mxGeometry x="1360" y="840" width="40" height="120" as="geometry"/>
                </mxCell>
                <mxCell id="54" value="W_PC" style="rounded=0;whiteSpace=wrap;html=1;direction=south;" parent="53" vertex="1">
                    <mxGeometry width="40" height="120" as="geometry"/>
                </mxCell>
                <mxCell id="55" value="" style="triangle;whiteSpace=wrap;html=1;direction=south;" parent="53" vertex="1">
                    <mxGeometry width="40" height="20" as="geometry"/>
                </mxCell>
                <mxCell id="57" value="" style="group" parent="1" vertex="1" connectable="0">
                    <mxGeometry x="1360" y="465" width="40" height="120" as="geometry"/>
                </mxCell>
                <mxCell id="58" value="W&lt;br&gt;_ALU" style="rounded=0;whiteSpace=wrap;html=1;direction=south;" parent="57" vertex="1">
                    <mxGeometry width="40" height="120" as="geometry"/>
                </mxCell>
                <mxCell id="59" value="" style="triangle;whiteSpace=wrap;html=1;direction=south;" parent="57" vertex="1">
                    <mxGeometry width="40" height="20" as="geometry"/>
                </mxCell>
                <mxCell id="60" value="" style="group" parent="1" vertex="1" connectable="0">
                    <mxGeometry x="1360" y="60" width="40" height="120" as="geometry"/>
                </mxCell>
                <mxCell id="61" value="W_CSR" style="rounded=0;whiteSpace=wrap;html=1;direction=south;" parent="60" vertex="1">
                    <mxGeometry width="40" height="120" as="geometry"/>
                </mxCell>
                <mxCell id="62" value="" style="triangle;whiteSpace=wrap;html=1;direction=south;" parent="60" vertex="1">
                    <mxGeometry width="40" height="20" as="geometry"/>
                </mxCell>
                <mxCell id="183" style="edgeStyle=orthogonalEdgeStyle;rounded=0;html=1;exitX=0.5;exitY=1;exitDx=0;exitDy=0;fontSize=12;" parent="1" source="67" edge="1">
                    <mxGeometry relative="1" as="geometry">
                        <mxPoint x="1580" y="640" as="targetPoint"/>
                    </mxGeometry>
                </mxCell>
                <mxCell id="240" style="edgeStyle=none;html=1;entryX=0;entryY=0.5;entryDx=0;entryDy=0;" parent="1" target="68" edge="1">
                    <mxGeometry relative="1" as="geometry">
                        <mxPoint x="1640" y="520" as="sourcePoint"/>
                    </mxGeometry>
                </mxCell>
                <mxCell id="67" value="D$" style="rounded=0;whiteSpace=wrap;html=1;fillColor=#d5e8d4;strokeColor=#82b366;" parent="1" vertex="1">
                    <mxGeometry x="1520" y="460" width="120" height="140" as="geometry"/>
                </mxCell>
                <mxCell id="191" style="edgeStyle=orthogonalEdgeStyle;rounded=0;html=1;entryX=0.65;entryY=1.017;entryDx=0;entryDy=0;fontSize=12;entryPerimeter=0;" parent="1" source="68" target="72" edge="1">
                    <mxGeometry relative="1" as="geometry">
                        <Array as="points">
                            <mxPoint x="1880" y="520"/>
                            <mxPoint x="1880" y="464"/>
                        </Array>
                    </mxGeometry>
                </mxCell>
                <mxCell id="203" style="edgeStyle=orthogonalEdgeStyle;rounded=0;html=1;exitX=0.5;exitY=1;exitDx=0;exitDy=0;fontSize=12;endArrow=none;endFill=0;" parent="1" source="68" edge="1">
                    <mxGeometry relative="1" as="geometry">
                        <mxPoint x="1780" y="590" as="targetPoint"/>
                        <Array as="points">
                            <mxPoint x="1780" y="570"/>
                            <mxPoint x="1780" y="570"/>
                        </Array>
                    </mxGeometry>
                </mxCell>
                <mxCell id="205" value="ld_type" style="edgeLabel;html=1;align=center;verticalAlign=middle;resizable=0;points=[];fontSize=12;" parent="203" vertex="1" connectable="0">
                    <mxGeometry x="-0.14" y="-1" relative="1" as="geometry">
                        <mxPoint as="offset"/>
                    </mxGeometry>
                </mxCell>
                <mxCell id="68" value="Load" style="rounded=0;whiteSpace=wrap;html=1;" parent="1" vertex="1">
                    <mxGeometry x="1720" y="480" width="120" height="80" as="geometry"/>
                </mxCell>
                <mxCell id="192" style="edgeStyle=orthogonalEdgeStyle;rounded=0;html=1;fontSize=12;entryX=0.875;entryY=1.033;entryDx=0;entryDy=0;entryPerimeter=0;" parent="1" source="70" target="72" edge="1">
                    <mxGeometry relative="1" as="geometry">
                        <Array as="points">
                            <mxPoint x="1920" y="900"/>
                            <mxPoint x="1920" y="500"/>
                        </Array>
                        <mxPoint x="1940" y="550" as="targetPoint"/>
                    </mxGeometry>
                </mxCell>
                <mxCell id="70" value="+4" style="rounded=0;whiteSpace=wrap;html=1;" parent="1" vertex="1">
                    <mxGeometry x="1640" y="870" width="80" height="60" as="geometry"/>
                </mxCell>
                <mxCell id="161" style="edgeStyle=orthogonalEdgeStyle;rounded=0;html=1;exitX=1;exitY=0.5;exitDx=0;exitDy=0;fontSize=12;endArrow=none;endFill=0;" parent="1" source="72" edge="1">
                    <mxGeometry relative="1" as="geometry">
                        <mxPoint x="1990" y="550" as="targetPoint"/>
                    </mxGeometry>
                </mxCell>
                <mxCell id="206" value="wb_sel" style="edgeLabel;html=1;align=center;verticalAlign=middle;resizable=0;points=[];fontSize=12;" parent="161" vertex="1" connectable="0">
                    <mxGeometry x="-0.2" y="-2" relative="1" as="geometry">
                        <mxPoint as="offset"/>
                    </mxGeometry>
                </mxCell>
                <mxCell id="195" style="edgeStyle=orthogonalEdgeStyle;rounded=0;html=1;entryX=0;entryY=0.5;entryDx=0;entryDy=0;fontSize=12;" parent="1" source="72" target="73" edge="1">
                    <mxGeometry relative="1" as="geometry"/>
                </mxCell>
                <mxCell id="72" value="" style="shape=trapezoid;perimeter=trapezoidPerimeter;whiteSpace=wrap;html=1;fixedSize=1;direction=south;" parent="1" vertex="1">
                    <mxGeometry x="1960" y="360" width="60" height="160" as="geometry"/>
                </mxCell>
                <mxCell id="73" value="RegFile" style="rounded=0;whiteSpace=wrap;html=1;fillColor=#d5e8d4;strokeColor=#82b366;" parent="1" vertex="1">
                    <mxGeometry x="2080" y="370" width="120" height="140" as="geometry"/>
                </mxCell>
                <mxCell id="76" value="&lt;font style=&quot;font-size: 26px;&quot;&gt;Fetch&lt;/font&gt;" style="text;html=1;align=center;verticalAlign=middle;resizable=0;points=[];autosize=1;strokeColor=none;fillColor=none;" parent="1" vertex="1">
                    <mxGeometry x="-50" y="1020" width="90" height="40" as="geometry"/>
                </mxCell>
                <mxCell id="77" value="&lt;font style=&quot;font-size: 26px;&quot;&gt;Execute &amp;amp;&amp;nbsp;&lt;/font&gt;&lt;span style=&quot;font-size: 26px;&quot;&gt;Decode&lt;/span&gt;" style="text;html=1;align=center;verticalAlign=middle;resizable=0;points=[];autosize=1;strokeColor=none;fillColor=none;" parent="1" vertex="1">
                    <mxGeometry x="810" y="1020" width="240" height="40" as="geometry"/>
                </mxCell>
                <mxCell id="78" value="&lt;font style=&quot;font-size: 26px;&quot;&gt;Mem &amp;amp; WriteBack&lt;/font&gt;" style="text;html=1;align=center;verticalAlign=middle;resizable=0;points=[];autosize=1;strokeColor=none;fillColor=none;" parent="1" vertex="1">
                    <mxGeometry x="1580" y="1035" width="230" height="40" as="geometry"/>
                </mxCell>
                <mxCell id="82" style="edgeStyle=none;html=1;exitX=1;exitY=0.25;exitDx=0;exitDy=0;entryX=0;entryY=0.25;entryDx=0;entryDy=0;fontSize=26;" parent="1" source="79" target="81" edge="1">
                    <mxGeometry relative="1" as="geometry"/>
                </mxCell>
                <mxCell id="93" style="edgeStyle=none;html=1;fontSize=12;" parent="1" source="79" edge="1">
                    <mxGeometry relative="1" as="geometry">
                        <mxPoint x="280" y="-20" as="targetPoint"/>
                    </mxGeometry>
                </mxCell>
                <mxCell id="95" style="edgeStyle=orthogonalEdgeStyle;html=1;fontSize=12;entryX=0;entryY=0.5;entryDx=0;entryDy=0;rounded=0;exitX=0;exitY=0.5;exitDx=0;exitDy=0;" parent="1" source="79" target="3" edge="1">
                    <mxGeometry relative="1" as="geometry">
                        <mxPoint x="-40" y="120" as="targetPoint"/>
                        <mxPoint x="150" y="70" as="sourcePoint"/>
                        <Array as="points">
                            <mxPoint x="-70" y="-60"/>
                        </Array>
                    </mxGeometry>
                </mxCell>
                <mxCell id="79" value="Master&lt;br&gt;Control" style="rounded=0;whiteSpace=wrap;html=1;fillColor=#d5e8d4;strokeColor=#82b366;" parent="1" vertex="1">
                    <mxGeometry x="220" y="-100" width="120" height="80" as="geometry"/>
                </mxCell>
                <mxCell id="85" style="edgeStyle=none;html=1;exitX=0;exitY=0.75;exitDx=0;exitDy=0;entryX=1;entryY=0.75;entryDx=0;entryDy=0;fontSize=12;" parent="1" source="81" target="79" edge="1">
                    <mxGeometry relative="1" as="geometry"/>
                </mxCell>
                <mxCell id="81" value="Slave&lt;br&gt;Control" style="rounded=0;whiteSpace=wrap;html=1;fillColor=#d5e8d4;strokeColor=#82b366;" parent="1" vertex="1">
                    <mxGeometry x="460" y="-100" width="120" height="80" as="geometry"/>
                </mxCell>
                <mxCell id="84" value="valid" style="text;html=1;align=center;verticalAlign=middle;resizable=0;points=[];autosize=1;strokeColor=none;fillColor=none;fontSize=12;" parent="1" vertex="1">
                    <mxGeometry x="400" y="-110" width="50" height="30" as="geometry"/>
                </mxCell>
                <mxCell id="86" value="ready" style="text;html=1;align=center;verticalAlign=middle;resizable=0;points=[];autosize=1;strokeColor=none;fillColor=none;fontSize=12;" parent="1" vertex="1">
                    <mxGeometry x="410" y="50" width="50" height="30" as="geometry"/>
                </mxCell>
                <mxCell id="7" value="" style="group;fillColor=#e1d5e7;strokeColor=#9673a6;" parent="1" vertex="1" connectable="0">
                    <mxGeometry x="380" y="590" width="40" height="120" as="geometry"/>
                </mxCell>
                <mxCell id="8" value="E_PC" style="rounded=0;whiteSpace=wrap;html=1;direction=south;" parent="7" vertex="1">
                    <mxGeometry width="40" height="120" as="geometry"/>
                </mxCell>
                <mxCell id="9" value="" style="triangle;whiteSpace=wrap;html=1;direction=south;" parent="7" vertex="1">
                    <mxGeometry width="40" height="20" as="geometry"/>
                </mxCell>
                <mxCell id="87" value="Decode" style="rounded=0;whiteSpace=wrap;html=1;" parent="1" vertex="1">
                    <mxGeometry x="520" y="200" width="120" height="80" as="geometry"/>
                </mxCell>
                <mxCell id="155" style="edgeStyle=orthogonalEdgeStyle;rounded=0;html=1;exitX=1;exitY=0.25;exitDx=0;exitDy=0;entryX=0;entryY=0.25;entryDx=0;entryDy=0;fontSize=12;" parent="1" source="88" target="89" edge="1">
                    <mxGeometry relative="1" as="geometry"/>
                </mxCell>
                <mxCell id="223" style="edgeStyle=orthogonalEdgeStyle;rounded=0;html=1;fontSize=12;endArrow=classicThin;endFill=1;entryX=1;entryY=0.25;entryDx=0;entryDy=0;" parent="1" source="88" target="81" edge="1">
                    <mxGeometry relative="1" as="geometry">
                        <mxPoint x="580" y="-60" as="targetPoint"/>
                        <Array as="points">
                            <mxPoint x="860" y="-80"/>
                            <mxPoint x="860" y="-80"/>
                        </Array>
                    </mxGeometry>
                </mxCell>
                <mxCell id="228" style="edgeStyle=orthogonalEdgeStyle;rounded=0;html=1;exitX=0;exitY=0.75;exitDx=0;exitDy=0;entryX=1;entryY=0.75;entryDx=0;entryDy=0;fontSize=12;endArrow=classicThin;endFill=1;" parent="1" source="88" target="81" edge="1">
                    <mxGeometry relative="1" as="geometry"/>
                </mxCell>
                <mxCell id="88" value="Master&lt;br&gt;Control" style="rounded=0;whiteSpace=wrap;html=1;fillColor=#d5e8d4;strokeColor=#82b366;" parent="1" vertex="1">
                    <mxGeometry x="1170" y="-100" width="120" height="80" as="geometry"/>
                </mxCell>
                <mxCell id="156" style="edgeStyle=orthogonalEdgeStyle;rounded=0;html=1;exitX=0;exitY=0.75;exitDx=0;exitDy=0;entryX=1;entryY=0.75;entryDx=0;entryDy=0;fontSize=12;" parent="1" source="89" target="88" edge="1">
                    <mxGeometry relative="1" as="geometry"/>
                </mxCell>
                <mxCell id="89" value="Slave&lt;br&gt;Control" style="rounded=0;whiteSpace=wrap;html=1;fillColor=#d5e8d4;strokeColor=#82b366;" parent="1" vertex="1">
                    <mxGeometry x="1450" y="-100" width="120" height="80" as="geometry"/>
                </mxCell>
                <mxCell id="90" value="" style="group" parent="1" vertex="1" connectable="0">
                    <mxGeometry x="1360" y="260" width="40" height="120" as="geometry"/>
                </mxCell>
                <mxCell id="91" value="W_IR" style="rounded=0;whiteSpace=wrap;html=1;direction=south;" parent="90" vertex="1">
                    <mxGeometry width="40" height="120" as="geometry"/>
                </mxCell>
                <mxCell id="92" value="" style="triangle;whiteSpace=wrap;html=1;direction=south;" parent="90" vertex="1">
                    <mxGeometry width="40" height="20" as="geometry"/>
                </mxCell>
                <mxCell id="98" value="wait_slave_ready" style="text;html=1;align=center;verticalAlign=middle;resizable=0;points=[];autosize=1;strokeColor=none;fillColor=none;fontSize=12;" parent="1" vertex="1">
                    <mxGeometry x="110" y="-50" width="120" height="30" as="geometry"/>
                </mxCell>
                <mxCell id="99" style="edgeStyle=orthogonalEdgeStyle;rounded=0;html=1;entryX=0;entryY=0.5;entryDx=0;entryDy=0;fontSize=12;" parent="1" source="241" target="87" edge="1">
                    <mxGeometry relative="1" as="geometry">
                        <Array as="points">
                            <mxPoint x="440" y="360"/>
                            <mxPoint x="440" y="200"/>
                        </Array>
                        <mxPoint x="420" y="360" as="sourcePoint"/>
                    </mxGeometry>
                </mxCell>
                <mxCell id="100" style="edgeStyle=orthogonalEdgeStyle;rounded=0;html=1;entryX=0;entryY=0.5;entryDx=0;entryDy=0;fontSize=12;" parent="1" source="10" target="36" edge="1">
                    <mxGeometry relative="1" as="geometry">
                        <Array as="points">
                            <mxPoint x="250" y="360"/>
                            <mxPoint x="250" y="360"/>
                        </Array>
                        <mxPoint x="420" y="360" as="sourcePoint"/>
                    </mxGeometry>
                </mxCell>
                <mxCell id="101" style="edgeStyle=orthogonalEdgeStyle;rounded=0;html=1;fontSize=12;" parent="1" edge="1">
                    <mxGeometry relative="1" as="geometry">
                        <mxPoint x="520" y="600" as="targetPoint"/>
                        <Array as="points">
                            <mxPoint x="440" y="390"/>
                            <mxPoint x="440" y="600"/>
                            <mxPoint x="520" y="600"/>
                        </Array>
                        <mxPoint x="440" y="390" as="sourcePoint"/>
                    </mxGeometry>
                </mxCell>
                <mxCell id="102" value="ir[24:20]" style="text;html=1;align=center;verticalAlign=middle;resizable=0;points=[];autosize=1;strokeColor=none;fillColor=none;fontSize=12;" parent="1" vertex="1">
                    <mxGeometry x="440" y="490" width="70" height="30" as="geometry"/>
                </mxCell>
                <mxCell id="103" value="ir[19:15]" style="text;html=1;align=center;verticalAlign=middle;resizable=0;points=[];autosize=1;strokeColor=none;fillColor=none;fontSize=12;" parent="1" vertex="1">
                    <mxGeometry x="440" y="560" width="70" height="30" as="geometry"/>
                </mxCell>
                <mxCell id="104" style="edgeStyle=orthogonalEdgeStyle;rounded=0;html=1;entryX=0;entryY=0.25;entryDx=0;entryDy=0;fontSize=12;startArrow=none;" parent="1" source="241" target="37" edge="1">
                    <mxGeometry relative="1" as="geometry">
                        <Array as="points">
                            <mxPoint x="440" y="360"/>
                            <mxPoint x="440" y="520"/>
                        </Array>
                        <mxPoint x="420" y="360" as="sourcePoint"/>
                    </mxGeometry>
                </mxCell>
                <mxCell id="119" value="fwd2" style="text;html=1;align=center;verticalAlign=middle;resizable=0;points=[];autosize=1;strokeColor=none;fillColor=none;fontSize=12;" parent="1" vertex="1">
                    <mxGeometry x="660" y="430" width="50" height="30" as="geometry"/>
                </mxCell>
                <mxCell id="120" value="fwd1" style="text;html=1;align=center;verticalAlign=middle;resizable=0;points=[];autosize=1;strokeColor=none;fillColor=none;fontSize=12;" parent="1" vertex="1">
                    <mxGeometry x="660" y="545" width="50" height="30" as="geometry"/>
                </mxCell>
                <mxCell id="126" style="edgeStyle=orthogonalEdgeStyle;rounded=0;html=1;exitX=0.75;exitY=0;exitDx=0;exitDy=0;entryX=0.833;entryY=1;entryDx=0;entryDy=0;entryPerimeter=0;fontSize=12;" parent="1" source="8" target="46" edge="1">
                    <mxGeometry relative="1" as="geometry"/>
                </mxCell>
                <mxCell id="142" value="" style="edgeStyle=orthogonalEdgeStyle;rounded=0;html=1;entryDx=0;entryDy=0;fontSize=12;endArrow=none;" parent="1" source="38" target="143" edge="1">
                    <mxGeometry relative="1" as="geometry">
                        <mxPoint x="720" y="505" as="sourcePoint"/>
                        <mxPoint x="800" y="180" as="targetPoint"/>
                    </mxGeometry>
                </mxCell>
                <mxCell id="145" value="" style="edgeStyle=orthogonalEdgeStyle;rounded=0;html=1;entryDx=0;entryDy=0;fontSize=12;endArrow=none;" parent="1" source="38" target="143" edge="1">
                    <mxGeometry relative="1" as="geometry">
                        <mxPoint x="720" y="505" as="sourcePoint"/>
                        <mxPoint x="1120" y="740" as="targetPoint"/>
                        <Array as="points"/>
                    </mxGeometry>
                </mxCell>
                <mxCell id="143" value="" style="shape=waypoint;sketch=0;fillStyle=solid;size=6;pointerEvents=1;points=[];fillColor=none;resizable=0;rotatable=0;perimeter=centerPerimeter;snapToPoint=1;fontSize=12;" parent="1" vertex="1">
                    <mxGeometry x="730" y="494.29" width="20" height="20" as="geometry"/>
                </mxCell>
                <mxCell id="146" value="" style="edgeStyle=orthogonalEdgeStyle;rounded=0;html=1;exitX=0.5;exitY=0;exitDx=0;exitDy=0;fontSize=12;entryDx=0;entryDy=0;endArrow=none;" parent="1" source="52" target="147" edge="1">
                    <mxGeometry relative="1" as="geometry">
                        <mxPoint x="800" y="220" as="targetPoint"/>
                        <mxPoint x="720" y="610" as="sourcePoint"/>
                        <Array as="points"/>
                    </mxGeometry>
                </mxCell>
                <mxCell id="147" value="" style="shape=waypoint;sketch=0;fillStyle=solid;size=6;pointerEvents=1;points=[];fillColor=none;resizable=0;rotatable=0;perimeter=centerPerimeter;snapToPoint=1;fontSize=12;" parent="1" vertex="1">
                    <mxGeometry x="770" y="600" width="20" height="20" as="geometry"/>
                </mxCell>
                <mxCell id="150" value="" style="edgeStyle=segmentEdgeStyle;endArrow=none;html=1;curved=0;rounded=0;endSize=8;startSize=8;entryDx=0;entryDy=0;" parent="1" edge="1">
                    <mxGeometry width="50" height="50" relative="1" as="geometry">
                        <mxPoint x="40" y="370" as="sourcePoint"/>
                        <mxPoint x="40" y="370" as="targetPoint"/>
                        <Array as="points"/>
                    </mxGeometry>
                </mxCell>
                <mxCell id="152" value="" style="endArrow=none;dashed=1;html=1;rounded=0;fontSize=12;" parent="1" edge="1">
                    <mxGeometry width="50" height="50" relative="1" as="geometry">
                        <mxPoint x="400" y="590" as="sourcePoint"/>
                        <mxPoint x="400" y="300" as="targetPoint"/>
                    </mxGeometry>
                </mxCell>
                <mxCell id="153" value="" style="endArrow=none;dashed=1;html=1;rounded=0;fontSize=12;" parent="1" edge="1">
                    <mxGeometry width="50" height="50" relative="1" as="geometry">
                        <mxPoint x="400" y="300" as="sourcePoint"/>
                        <mxPoint x="400" y="-100" as="targetPoint"/>
                    </mxGeometry>
                </mxCell>
                <mxCell id="154" value="" style="endArrow=none;dashed=1;html=1;rounded=0;fontSize=12;" parent="1" edge="1">
                    <mxGeometry width="50" height="50" relative="1" as="geometry">
                        <mxPoint x="400" y="1120" as="sourcePoint"/>
                        <mxPoint x="400" y="710" as="targetPoint"/>
                    </mxGeometry>
                </mxCell>
                <mxCell id="157" value="valid" style="text;html=1;align=center;verticalAlign=middle;resizable=0;points=[];autosize=1;strokeColor=none;fillColor=none;fontSize=12;" parent="1" vertex="1">
                    <mxGeometry x="1400" y="-110" width="50" height="30" as="geometry"/>
                </mxCell>
                <mxCell id="158" value="ready" style="text;html=1;align=center;verticalAlign=middle;resizable=0;points=[];autosize=1;strokeColor=none;fillColor=none;fontSize=12;" parent="1" vertex="1">
                    <mxGeometry x="1400" y="-40" width="50" height="30" as="geometry"/>
                </mxCell>
                <mxCell id="160" style="edgeStyle=orthogonalEdgeStyle;rounded=0;html=1;entryX=0.5;entryY=0;entryDx=0;entryDy=0;fontSize=12;" parent="1" source="91" target="73" edge="1">
                    <mxGeometry relative="1" as="geometry"/>
                </mxCell>
                <mxCell id="165" style="edgeStyle=orthogonalEdgeStyle;rounded=0;html=1;fontSize=12;" parent="1" source="54" target="70" edge="1">
                    <mxGeometry relative="1" as="geometry"/>
                </mxCell>
                <mxCell id="166" style="edgeStyle=orthogonalEdgeStyle;rounded=0;html=1;exitDx=0;exitDy=0;entryX=0.5;entryY=1;entryDx=0;entryDy=0;fontSize=12;startArrow=none;" parent="1" source="168" target="54" edge="1">
                    <mxGeometry relative="1" as="geometry">
                        <Array as="points">
                            <mxPoint x="580" y="680"/>
                            <mxPoint x="580" y="900"/>
                        </Array>
                    </mxGeometry>
                </mxCell>
                <mxCell id="167" value="" style="edgeStyle=orthogonalEdgeStyle;rounded=0;html=1;exitX=0.75;exitY=0;exitDx=0;exitDy=0;entryDx=0;entryDy=0;fontSize=12;endArrow=none;" parent="1" source="8" target="168" edge="1">
                    <mxGeometry relative="1" as="geometry">
                        <mxPoint x="420" y="680" as="sourcePoint"/>
                        <mxPoint x="1360" y="900" as="targetPoint"/>
                        <Array as="points"/>
                    </mxGeometry>
                </mxCell>
                <mxCell id="168" value="" style="shape=waypoint;sketch=0;fillStyle=solid;size=6;pointerEvents=1;points=[];fillColor=none;resizable=0;rotatable=0;perimeter=centerPerimeter;snapToPoint=1;fontSize=12;" parent="1" vertex="1">
                    <mxGeometry x="570" y="670" width="20" height="20" as="geometry"/>
                </mxCell>
                <mxCell id="175" style="edgeStyle=orthogonalEdgeStyle;rounded=0;html=1;fontSize=12;startArrow=none;" parent="1" source="280" edge="1">
                    <mxGeometry relative="1" as="geometry">
                        <mxPoint x="1360" y="520" as="targetPoint"/>
                    </mxGeometry>
                </mxCell>
                <mxCell id="176" style="edgeStyle=orthogonalEdgeStyle;rounded=0;html=1;fontSize=12;entryX=0.008;entryY=0.186;entryDx=0;entryDy=0;entryPerimeter=0;" parent="1" source="58" target="67" edge="1">
                    <mxGeometry relative="1" as="geometry">
                        <mxPoint x="1430" y="470" as="targetPoint"/>
                        <Array as="points">
                            <mxPoint x="1440" y="525"/>
                            <mxPoint x="1440" y="486"/>
                        </Array>
                    </mxGeometry>
                </mxCell>
                <mxCell id="179" value="" style="group" parent="1" vertex="1" connectable="0">
                    <mxGeometry x="1360" y="680" width="40" height="120" as="geometry"/>
                </mxCell>
                <mxCell id="180" value="W_&lt;br&gt;WDATA" style="rounded=0;whiteSpace=wrap;html=1;direction=south;" parent="179" vertex="1">
                    <mxGeometry width="40" height="120" as="geometry"/>
                </mxCell>
                <mxCell id="181" value="" style="triangle;whiteSpace=wrap;html=1;direction=south;" parent="179" vertex="1">
                    <mxGeometry width="40" height="20" as="geometry"/>
                </mxCell>
                <mxCell id="184" value="wen" style="text;html=1;align=center;verticalAlign=middle;resizable=0;points=[];autosize=1;strokeColor=none;fillColor=none;fontSize=12;" parent="1" vertex="1">
                    <mxGeometry x="1580" y="610" width="50" height="30" as="geometry"/>
                </mxCell>
                <mxCell id="185" style="edgeStyle=orthogonalEdgeStyle;rounded=0;html=1;fontSize=12;exitDx=0;exitDy=0;startArrow=none;" parent="1" source="187" edge="1">
                    <mxGeometry relative="1" as="geometry">
                        <Array as="points">
                            <mxPoint x="1440" y="420"/>
                            <mxPoint x="1960" y="420"/>
                        </Array>
                        <mxPoint x="1960" y="420" as="targetPoint"/>
                    </mxGeometry>
                </mxCell>
                <mxCell id="186" value="" style="edgeStyle=orthogonalEdgeStyle;rounded=0;html=1;entryDx=0;entryDy=0;entryPerimeter=0;fontSize=12;exitX=0.5;exitY=0;exitDx=0;exitDy=0;endArrow=none;" parent="1" source="58" target="187" edge="1">
                    <mxGeometry relative="1" as="geometry">
                        <mxPoint x="1400" y="525" as="sourcePoint"/>
                        <mxPoint x="1961.02" y="380.96000000000004" as="targetPoint"/>
                        <Array as="points">
                            <mxPoint x="1440" y="525"/>
                        </Array>
                    </mxGeometry>
                </mxCell>
                <mxCell id="187" value="" style="shape=waypoint;sketch=0;fillStyle=solid;size=6;pointerEvents=1;points=[];fillColor=none;resizable=0;rotatable=0;perimeter=centerPerimeter;snapToPoint=1;fontSize=12;" parent="1" vertex="1">
                    <mxGeometry x="1430" y="475" width="20" height="20" as="geometry"/>
                </mxCell>
                <mxCell id="189" value="" style="edgeStyle=orthogonalEdgeStyle;rounded=0;html=1;entryDx=0;entryDy=0;fontSize=12;endArrow=none;" parent="1" source="58" edge="1">
                    <mxGeometry relative="1" as="geometry">
                        <mxPoint x="1400" y="525" as="sourcePoint"/>
                        <mxPoint x="1780" y="420" as="targetPoint"/>
                        <Array as="points">
                            <mxPoint x="1440" y="525"/>
                            <mxPoint x="1440" y="420"/>
                        </Array>
                    </mxGeometry>
                </mxCell>
                <mxCell id="196" value="" style="endArrow=none;dashed=1;html=1;rounded=0;fontSize=12;" parent="1" edge="1">
                    <mxGeometry width="50" height="50" relative="1" as="geometry">
                        <mxPoint x="1380" y="1160" as="sourcePoint"/>
                        <mxPoint x="1380" y="960" as="targetPoint"/>
                    </mxGeometry>
                </mxCell>
                <mxCell id="197" value="" style="endArrow=none;dashed=1;html=1;rounded=0;fontSize=12;" parent="1" edge="1">
                    <mxGeometry width="50" height="50" relative="1" as="geometry">
                        <mxPoint x="1380" y="840" as="sourcePoint"/>
                        <mxPoint x="1379.5" y="800" as="targetPoint"/>
                    </mxGeometry>
                </mxCell>
                <mxCell id="198" value="" style="endArrow=none;dashed=1;html=1;rounded=0;fontSize=12;entryX=1;entryY=0.5;entryDx=0;entryDy=0;" parent="1" target="58" edge="1">
                    <mxGeometry width="50" height="50" relative="1" as="geometry">
                        <mxPoint x="1380" y="680" as="sourcePoint"/>
                        <mxPoint x="1430" y="630" as="targetPoint"/>
                    </mxGeometry>
                </mxCell>
                <mxCell id="199" value="" style="endArrow=none;dashed=1;html=1;rounded=0;fontSize=12;entryX=1;entryY=0.5;entryDx=0;entryDy=0;" parent="1" edge="1">
                    <mxGeometry width="50" height="50" relative="1" as="geometry">
                        <mxPoint x="1380" y="460" as="sourcePoint"/>
                        <mxPoint x="1379.5" y="380" as="targetPoint"/>
                    </mxGeometry>
                </mxCell>
                <mxCell id="201" value="" style="endArrow=none;dashed=1;html=1;rounded=0;fontSize=12;entryX=1;entryY=0.5;entryDx=0;entryDy=0;exitX=0;exitY=0.5;exitDx=0;exitDy=0;" parent="1" source="92" target="61" edge="1">
                    <mxGeometry width="50" height="50" relative="1" as="geometry">
                        <mxPoint x="1420" y="230" as="sourcePoint"/>
                        <mxPoint x="1419.5" y="150" as="targetPoint"/>
                    </mxGeometry>
                </mxCell>
                <mxCell id="202" value="" style="endArrow=none;dashed=1;html=1;rounded=0;fontSize=12;exitX=0;exitY=0.5;exitDx=0;exitDy=0;" parent="1" source="62" edge="1">
                    <mxGeometry width="50" height="50" relative="1" as="geometry">
                        <mxPoint x="1370" y="-50" as="sourcePoint"/>
                        <mxPoint x="1380" y="-130" as="targetPoint"/>
                    </mxGeometry>
                </mxCell>
                <mxCell id="211" value="B_sel" style="text;html=1;align=center;verticalAlign=middle;resizable=0;points=[];autosize=1;strokeColor=none;fillColor=none;fontSize=12;" parent="1" vertex="1">
                    <mxGeometry x="830" y="440" width="50" height="30" as="geometry"/>
                </mxCell>
                <mxCell id="213" value="imm_type" style="text;html=1;align=center;verticalAlign=middle;resizable=0;points=[];autosize=1;strokeColor=none;fillColor=none;fontSize=12;" parent="1" vertex="1">
                    <mxGeometry x="570" y="290" width="80" height="30" as="geometry"/>
                </mxCell>
                <mxCell id="215" value="taken" style="text;html=1;align=center;verticalAlign=middle;resizable=0;points=[];autosize=1;strokeColor=none;fillColor=none;fontSize=12;" parent="1" vertex="1">
                    <mxGeometry x="1060" y="265" width="50" height="30" as="geometry"/>
                </mxCell>
                <mxCell id="224" value="execute_fiinished" style="text;html=1;align=center;verticalAlign=middle;resizable=0;points=[];autosize=1;strokeColor=none;fillColor=none;fontSize=12;" parent="1" vertex="1">
                    <mxGeometry x="820" y="-110" width="120" height="30" as="geometry"/>
                </mxCell>
                <mxCell id="230" value="wait_slave_ready" style="text;html=1;align=center;verticalAlign=middle;resizable=0;points=[];autosize=1;strokeColor=none;fillColor=none;fontSize=12;" parent="1" vertex="1">
                    <mxGeometry x="820" y="-40" width="120" height="30" as="geometry"/>
                </mxCell>
                <mxCell id="231" style="edgeStyle=none;html=1;endArrow=none;endFill=0;" parent="1" source="41" edge="1">
                    <mxGeometry relative="1" as="geometry">
                        <mxPoint x="1020.1720054842326" y="640" as="targetPoint"/>
                    </mxGeometry>
                </mxCell>
                <mxCell id="232" value="opcode" style="text;html=1;align=center;verticalAlign=middle;resizable=0;points=[];autosize=1;strokeColor=none;fillColor=none;" parent="1" vertex="1">
                    <mxGeometry x="1020" y="610" width="60" height="30" as="geometry"/>
                </mxCell>
                <mxCell id="234" value="br_type" style="text;html=1;align=center;verticalAlign=middle;resizable=0;points=[];autosize=1;strokeColor=none;fillColor=none;" parent="1" vertex="1">
                    <mxGeometry x="1010" y="340" width="60" height="30" as="geometry"/>
                </mxCell>
                <mxCell id="235" style="edgeStyle=orthogonalEdgeStyle;rounded=0;html=1;exitX=0.5;exitY=1;exitDx=0;exitDy=0;fontSize=12;endArrow=none;endFill=0;" parent="1" source="237" edge="1">
                    <mxGeometry relative="1" as="geometry">
                        <mxPoint x="1570" y="820" as="targetPoint"/>
                    </mxGeometry>
                </mxCell>
                <mxCell id="236" value="st_type" style="edgeLabel;html=1;align=center;verticalAlign=middle;resizable=0;points=[];fontSize=12;" parent="235" vertex="1" connectable="0">
                    <mxGeometry x="-0.2909" y="2" relative="1" as="geometry">
                        <mxPoint as="offset"/>
                    </mxGeometry>
                </mxCell>
                <mxCell id="239" style="edgeStyle=orthogonalEdgeStyle;html=1;entryX=0;entryY=0.75;entryDx=0;entryDy=0;rounded=0;" parent="1" source="237" target="67" edge="1">
                    <mxGeometry relative="1" as="geometry">
                        <Array as="points">
                            <mxPoint x="1570" y="650"/>
                            <mxPoint x="1440" y="650"/>
                            <mxPoint x="1440" y="565"/>
                        </Array>
                    </mxGeometry>
                </mxCell>
                <mxCell id="237" value="Store" style="rounded=0;whiteSpace=wrap;html=1;" parent="1" vertex="1">
                    <mxGeometry x="1510" y="700" width="120" height="80" as="geometry"/>
                </mxCell>
                <mxCell id="238" style="edgeStyle=none;html=1;entryX=0;entryY=0.5;entryDx=0;entryDy=0;" parent="1" source="180" target="237" edge="1">
                    <mxGeometry relative="1" as="geometry"/>
                </mxCell>
                <mxCell id="242" value="" style="edgeStyle=orthogonalEdgeStyle;rounded=0;html=1;entryDx=0;entryDy=0;fontSize=12;endArrow=none;" parent="1" target="241" edge="1">
                    <mxGeometry relative="1" as="geometry">
                        <Array as="points"/>
                        <mxPoint x="420" y="360" as="sourcePoint"/>
                        <mxPoint x="520" y="520" as="targetPoint"/>
                    </mxGeometry>
                </mxCell>
                <mxCell id="241" value="" style="shape=waypoint;sketch=0;fillStyle=solid;size=6;pointerEvents=1;points=[];fillColor=none;resizable=0;rotatable=0;perimeter=centerPerimeter;snapToPoint=1;" parent="1" vertex="1">
                    <mxGeometry x="430" y="350" width="20" height="20" as="geometry"/>
                </mxCell>
                <mxCell id="247" style="edgeStyle=none;html=1;" parent="1" source="2" edge="1">
                    <mxGeometry relative="1" as="geometry">
                        <mxPoint x="190" y="360" as="targetPoint"/>
                    </mxGeometry>
                </mxCell>
                <mxCell id="248" style="endArrow=classic;html=1;fontFamily=Helvetica;fontSize=11;fontColor=default;align=center;strokeColor=default;edgeStyle=orthogonalEdgeStyle;rounded=0;" parent="1" target="8" edge="1">
                    <mxGeometry relative="1" as="geometry">
                        <mxPoint x="150" y="360" as="sourcePoint"/>
                        <Array as="points">
                            <mxPoint x="140" y="360"/>
                            <mxPoint x="140" y="650"/>
                        </Array>
                    </mxGeometry>
                </mxCell>
                <mxCell id="249" value="" style="endArrow=classic;html=1;rounded=0;entryX=1;entryY=0.5;entryDx=0;entryDy=0;" parent="1" target="6" edge="1">
                    <mxGeometry width="50" height="50" relative="1" as="geometry">
                        <mxPoint x="140" y="650" as="sourcePoint"/>
                        <mxPoint x="190" y="600" as="targetPoint"/>
                    </mxGeometry>
                </mxCell>
                <mxCell id="251" value="taken" style="text;html=1;align=center;verticalAlign=middle;resizable=0;points=[];autosize=1;strokeColor=none;fillColor=none;" parent="1" vertex="1">
                    <mxGeometry x="-60" y="250" width="50" height="30" as="geometry"/>
                </mxCell>
                <mxCell id="255" value="" style="edgeStyle=orthogonalEdgeStyle;endArrow=classic;html=1;rounded=0;endSize=8;startSize=8;entryX=0.75;entryY=1;entryDx=0;entryDy=0;" parent="1" target="3" edge="1">
                    <mxGeometry width="50" height="50" relative="1" as="geometry">
                        <mxPoint x="140" y="360" as="sourcePoint"/>
                        <mxPoint x="-110" y="390" as="targetPoint"/>
                        <Array as="points">
                            <mxPoint x="140" y="580"/>
                            <mxPoint x="-140" y="580"/>
                            <mxPoint x="-140" y="385"/>
                        </Array>
                    </mxGeometry>
                </mxCell>
                <mxCell id="256" value="" style="endArrow=classic;html=1;rounded=0;entryX=0.1;entryY=0.983;entryDx=0;entryDy=0;entryPerimeter=0;" parent="1" target="3" edge="1">
                    <mxGeometry width="50" height="50" relative="1" as="geometry">
                        <mxPoint x="-200" y="280" as="sourcePoint"/>
                        <mxPoint x="-130" y="270" as="targetPoint"/>
                    </mxGeometry>
                </mxCell>
                <mxCell id="257" value="alu_out" style="text;html=1;align=center;verticalAlign=middle;resizable=0;points=[];autosize=1;strokeColor=none;fillColor=none;" parent="1" vertex="1">
                    <mxGeometry x="-190" y="250" width="60" height="30" as="geometry"/>
                </mxCell>
                <mxCell id="258" value="pc_sel" style="text;html=1;align=center;verticalAlign=middle;resizable=0;points=[];autosize=1;strokeColor=none;fillColor=none;" parent="1" vertex="1">
                    <mxGeometry x="-65" y="230" width="60" height="30" as="geometry"/>
                </mxCell>
                <mxCell id="259" value="CSR" style="rounded=0;whiteSpace=wrap;html=1;fillColor=#d5e8d4;strokeColor=#82b366;" vertex="1" parent="1">
                    <mxGeometry x="520" y="80" width="120" height="80" as="geometry"/>
                </mxCell>
                <mxCell id="261" value="" style="edgeStyle=elbowEdgeStyle;elbow=horizontal;endArrow=classic;html=1;curved=0;rounded=0;endSize=8;startSize=8;entryX=0;entryY=0.5;entryDx=0;entryDy=0;" edge="1" parent="1" target="259">
                    <mxGeometry width="50" height="50" relative="1" as="geometry">
                        <mxPoint x="310" y="360" as="sourcePoint"/>
                        <mxPoint x="360" y="310" as="targetPoint"/>
                        <Array as="points">
                            <mxPoint x="440" y="210"/>
                        </Array>
                    </mxGeometry>
                </mxCell>
                <mxCell id="262" value="ir[31:20]" style="text;html=1;align=center;verticalAlign=middle;resizable=0;points=[];autosize=1;strokeColor=none;fillColor=none;fontSize=12;" vertex="1" parent="1">
                    <mxGeometry x="440" y="125" width="70" height="30" as="geometry"/>
                </mxCell>
                <mxCell id="279" value="" style="edgeStyle=elbowEdgeStyle;elbow=vertical;endArrow=classic;html=1;curved=0;rounded=0;endSize=8;startSize=8;entryX=0.5;entryY=1;entryDx=0;entryDy=0;exitDx=0;exitDy=0;startArrow=none;" edge="1" parent="1" source="284" target="61">
                    <mxGeometry width="50" height="50" relative="1" as="geometry">
                        <mxPoint x="580" y="80" as="sourcePoint"/>
                        <mxPoint x="630" y="30" as="targetPoint"/>
                        <Array as="points">
                            <mxPoint x="820" y="120"/>
                            <mxPoint x="950" y="50"/>
                        </Array>
                    </mxGeometry>
                </mxCell>
                <mxCell id="281" value="" style="edgeStyle=orthogonalEdgeStyle;rounded=0;html=1;fontSize=12;endArrow=none;" edge="1" parent="1" source="41" target="280">
                    <mxGeometry relative="1" as="geometry">
                        <mxPoint x="1360" y="520" as="targetPoint"/>
                        <mxPoint x="1080" y="520" as="sourcePoint"/>
                    </mxGeometry>
                </mxCell>
                <mxCell id="280" value="" style="shape=waypoint;sketch=0;fillStyle=solid;size=6;pointerEvents=1;points=[];fillColor=none;resizable=0;rotatable=0;perimeter=centerPerimeter;snapToPoint=1;" vertex="1" parent="1">
                    <mxGeometry x="1210" y="510" width="20" height="20" as="geometry"/>
                </mxCell>
                <mxCell id="282" value="" style="edgeStyle=elbowEdgeStyle;elbow=vertical;endArrow=classic;html=1;curved=0;rounded=0;endSize=8;startSize=8;entryX=0.5;entryY=0;entryDx=0;entryDy=0;" edge="1" parent="1" target="259">
                    <mxGeometry width="50" height="50" relative="1" as="geometry">
                        <mxPoint x="1220" y="520" as="sourcePoint"/>
                        <mxPoint x="1270" y="470" as="targetPoint"/>
                        <Array as="points">
                            <mxPoint x="800"/>
                            <mxPoint x="1090" y="120"/>
                        </Array>
                    </mxGeometry>
                </mxCell>
                <mxCell id="283" value="" style="edgeStyle=elbowEdgeStyle;elbow=vertical;endArrow=none;html=1;curved=0;rounded=0;endSize=8;startSize=8;entryDx=0;entryDy=0;exitX=1;exitY=0.5;exitDx=0;exitDy=0;" edge="1" parent="1" source="259" target="284">
                    <mxGeometry width="50" height="50" relative="1" as="geometry">
                        <mxPoint x="640" y="120" as="sourcePoint"/>
                        <mxPoint x="1360" y="120" as="targetPoint"/>
                        <Array as="points"/>
                    </mxGeometry>
                </mxCell>
                <mxCell id="285" value="" style="edgeStyle=segmentEdgeStyle;endArrow=classic;html=1;curved=0;rounded=0;endSize=8;startSize=8;elbow=vertical;startArrow=none;" edge="1" parent="1" source="284">
                    <mxGeometry width="50" height="50" relative="1" as="geometry">
                        <mxPoint x="660" y="120" as="sourcePoint"/>
                        <mxPoint x="800" y="650" as="targetPoint"/>
                        <Array as="points">
                            <mxPoint x="660" y="120"/>
                            <mxPoint x="660" y="650"/>
                            <mxPoint x="801" y="650"/>
                        </Array>
                    </mxGeometry>
                </mxCell>
                <mxCell id="288" value="" style="endArrow=classic;html=1;elbow=vertical;entryX=0.5;entryY=1;entryDx=0;entryDy=0;" edge="1" parent="1" target="38">
                    <mxGeometry width="50" height="50" relative="1" as="geometry">
                        <mxPoint x="640" y="504" as="sourcePoint"/>
                        <mxPoint x="690" y="460" as="targetPoint"/>
                    </mxGeometry>
                </mxCell>
                <mxCell id="289" value="" style="endArrow=classic;html=1;elbow=vertical;entryX=0.25;entryY=1;entryDx=0;entryDy=0;" edge="1" parent="1" target="38">
                    <mxGeometry width="50" height="50" relative="1" as="geometry">
                        <mxPoint x="650" y="484" as="sourcePoint"/>
                        <mxPoint x="690" y="514.29" as="targetPoint"/>
                    </mxGeometry>
                </mxCell>
                <mxCell id="290" value="" style="endArrow=classic;html=1;elbow=vertical;entryX=0.75;entryY=1;entryDx=0;entryDy=0;" edge="1" parent="1" target="52">
                    <mxGeometry width="50" height="50" relative="1" as="geometry">
                        <mxPoint x="650" y="630" as="sourcePoint"/>
                        <mxPoint x="690" y="494.28999999999996" as="targetPoint"/>
                    </mxGeometry>
                </mxCell>
                <mxCell id="291" value="" style="edgeStyle=segmentEdgeStyle;endArrow=none;html=1;curved=0;rounded=0;endSize=8;startSize=8;elbow=vertical;" edge="1" parent="1" target="284">
                    <mxGeometry width="50" height="50" relative="1" as="geometry">
                        <mxPoint x="660" y="120" as="sourcePoint"/>
                        <mxPoint x="800" y="650" as="targetPoint"/>
                        <Array as="points"/>
                    </mxGeometry>
                </mxCell>
                <mxCell id="284" value="" style="shape=waypoint;sketch=0;fillStyle=solid;size=6;pointerEvents=1;points=[];fillColor=none;resizable=0;rotatable=0;perimeter=centerPerimeter;snapToPoint=1;" vertex="1" parent="1">
                    <mxGeometry x="650" y="110" width="20" height="20" as="geometry"/>
                </mxCell>
                <mxCell id="292" value="" style="edgeStyle=segmentEdgeStyle;endArrow=classic;html=1;curved=0;rounded=0;endSize=8;startSize=8;elbow=vertical;entryX=0.5;entryY=1;entryDx=0;entryDy=0;" edge="1" parent="1" target="47">
                    <mxGeometry width="50" height="50" relative="1" as="geometry">
                        <mxPoint x="780" y="610" as="sourcePoint"/>
                        <mxPoint x="830" y="560" as="targetPoint"/>
                        <Array as="points">
                            <mxPoint x="780" y="390"/>
                        </Array>
                    </mxGeometry>
                </mxCell>
                <mxCell id="294" value="ir[11:7]" style="text;html=1;align=center;verticalAlign=middle;resizable=0;points=[];autosize=1;strokeColor=none;fillColor=none;fontSize=12;" vertex="1" parent="1">
                    <mxGeometry x="1450" y="290" width="60" height="30" as="geometry"/>
                </mxCell>
                <mxCell id="297" value="" style="edgeStyle=elbowEdgeStyle;elbow=horizontal;endArrow=classic;html=1;curved=0;rounded=0;endSize=8;startSize=8;entryX=0.15;entryY=1;entryDx=0;entryDy=0;entryPerimeter=0;" edge="1" parent="1" target="72">
                    <mxGeometry width="50" height="50" relative="1" as="geometry">
                        <mxPoint x="1400" y="120" as="sourcePoint"/>
                        <mxPoint x="1450" y="70" as="targetPoint"/>
                        <Array as="points">
                            <mxPoint x="1880" y="360"/>
                            <mxPoint x="1880" y="370"/>
                            <mxPoint x="1880" y="380"/>
                            <mxPoint x="1880" y="260"/>
                        </Array>
                    </mxGeometry>
                </mxCell>
                <mxCell id="298" value="" style="edgeStyle=orthogonalEdgeStyle;rounded=0;html=1;exitX=0.5;exitY=0;exitDx=0;exitDy=0;entryDx=0;entryDy=0;fontSize=12;endArrow=none;" edge="1" parent="1" source="58">
                    <mxGeometry relative="1" as="geometry">
                        <Array as="points">
                            <mxPoint x="1440" y="525"/>
                            <mxPoint x="1440" y="420"/>
                        </Array>
                        <mxPoint x="1400" y="525" as="sourcePoint"/>
                        <mxPoint x="1780" y="420" as="targetPoint"/>
                    </mxGeometry>
                </mxCell>
                <mxCell id="299" value="" style="group" vertex="1" connectable="0" parent="1">
                    <mxGeometry x="1360" y="1010" width="40" height="120" as="geometry"/>
                </mxCell>
                <mxCell id="300" value="W_&lt;br&gt;CTRL" style="rounded=0;whiteSpace=wrap;html=1;direction=south;" vertex="1" parent="299">
                    <mxGeometry width="40" height="120" as="geometry"/>
                </mxCell>
                <mxCell id="301" value="" style="triangle;whiteSpace=wrap;html=1;direction=south;" vertex="1" parent="299">
                    <mxGeometry width="40" height="20" as="geometry"/>
                </mxCell>
                <mxCell id="302" value="" style="endArrow=classic;html=1;rounded=0;entryX=0.1;entryY=0.983;entryDx=0;entryDy=0;entryPerimeter=0;" edge="1" parent="1">
                    <mxGeometry width="50" height="50" relative="1" as="geometry">
                        <mxPoint x="-201.02" y="319" as="sourcePoint"/>
                        <mxPoint x="-100.00000000000001" y="320" as="targetPoint"/>
                    </mxGeometry>
                </mxCell>
                <mxCell id="303" value="epc" style="text;html=1;align=center;verticalAlign=middle;resizable=0;points=[];autosize=1;strokeColor=none;fillColor=none;" vertex="1" parent="1">
                    <mxGeometry x="-180" y="290" width="40" height="30" as="geometry"/>
                </mxCell>
                <mxCell id="304" value="excep" style="text;html=1;align=center;verticalAlign=middle;resizable=0;points=[];autosize=1;strokeColor=none;fillColor=none;" vertex="1" parent="1">
                    <mxGeometry x="-65" y="210" width="60" height="30" as="geometry"/>
                </mxCell>
            </root>
        </mxGraphModel>
    </diagram>
</mxfile>